<?xml version="1.0" encoding="utf-8"?>
<!-- Generator: Adobe Illustrator 22.1.0, SVG Export Plug-In . SVG Version: 6.00 Build 0)  -->
<svg version="1.1" xmlns="http://www.w3.org/2000/svg" xmlns:xlink="http://www.w3.org/1999/xlink" x="0px" y="0px"
	 viewBox="0 0 100 100.3" style="enable-background:new 0 0 100 100.3;" xml:space="preserve">
<g id="Calque_2">
</g>
<g id="Calque_1">
	<g>
		<path d="M99.5,93.4l-13.4-31V72c0,6.7-3.7,11.9-8.1,11.9c-4.4,0-8.1-5.4-8.1-11.9V50.6c-1.6,1.1-3.4,1.1-4.8,0l-6.4-4.7
			c-0.9-0.8-2.1-0.6-3.1,0.2l-4.6,3.9c-1.9,1.6-4.2,1.4-6-0.5l-2-2.2c-1.1-1.1-2.4-1.2-3.6-0.3l-4.4,3.7c-0.7,0.6-1.7,0.9-2.6,0.9
			c-1.1,0-2.1-0.5-2.9-1.2l-3.2-2.9L36.1,23l6.1,11.2c0.6,1.1,1.5,1.7,2.4,1.7S46.5,35,47,34l10.3-21.6l6.2,14.3l4.4-6.5L60.1,2
			c-0.5-1.2-1.5-2-2.5-2c-1.2,0-2,0.6-2.5,1.9l-10.6,22l-6.3-11.6c-0.6-1.1-1.6-1.7-2.6-1.7c-0.9,0.2-1.9,0.9-2.4,2.2L0.4,93.5
			c-0.5,1.4-0.5,3.1,0,4.5c0.5,1.4,1.6,2.3,2.6,2.3h93.9c1.2,0,2.1-0.9,2.6-2.3C100.2,96.6,100.1,94.8,99.5,93.4z"/>
		<path d="M65.7,40.6c1.2,1.7,3.2,1.7,4.3,0l5.1-7.4v38.6c0,2.5,1.4,4.5,3.1,4.5c1.7,0,3.1-2,3.1-4.5V33.2l5.1,7.4
			c0.6,0.9,1.4,1.2,2.1,1.2c0.7,0,1.6-0.5,2.1-1.2c1.2-1.7,1.2-4.7,0-6.4l-10.2-15c-0.5-0.8-1.4-1.2-2.1-1.2s-1.6,0.5-2.1,1.2
			l-10.2,15C64.5,36,64.5,38.9,65.7,40.6z"/>
	</g>
</g>
</svg>
