<?xml version="1.0" encoding="utf-8"?>
<!-- Generator: Adobe Illustrator 22.1.0, SVG Export Plug-In . SVG Version: 6.00 Build 0)  -->
<svg version="1.1" id="Calque_1" xmlns="http://www.w3.org/2000/svg" xmlns:xlink="http://www.w3.org/1999/xlink" x="0px" y="0px"
	 viewBox="0 0 100 100" style="enable-background:new 0 0 100 100;" xml:space="preserve">
<g>
	<path d="M93.5,5.7l-0.1-2.6L94.6,3c2.7-0.2,4.4-0.3,5.4-0.3V0.4c0,0-88,3.6-88,22.2c0,18.6,33.6,39.9,33.4,50.6
		C45.2,87.7,11.3,94.7,0.1,99.5h44.5c1.3-1.2,2.8-1.9,4.5-3.1l1-0.5l1.1,2.3l-1,0.5c-0.5,0.3-1,0.8-1.5,0.8h31.3
		c0,0,15.6-10.6,15.2-26.5c-0.4-19.8-55.2-39.9-55-50.2C40.6,11.9,100,8.3,100,8.3V5.4c-1,0-2.7,0.1-5.3,0.3L93.5,5.7z M29,32.3
		l-0.6-1.1c-2-3.4-3-6.5-3-9.4c0-1.7,0.7-3.2,2.1-4.7l0.8-0.9l1.5,2l-0.8,0.9c-0.9,0.9-1.3,1.8-1.3,2.7c0,2.4,0.9,5,2.6,7.9l0.6,1.1
		L29,32.3z M67.4,86.5c-2.8,3.1-6.5,5.5-10,7.8l-1,0.6l-1.1-2.3l1-0.6c3.4-2.2,6.9-4.5,9.5-7.4l0.8-0.9l1.5,1.9L67.4,86.5z
		 M66.6,63.9l0.8,0.9c3.5,3.6,5.1,6.3,5.1,8.7c0,1.6-0.2,3-0.5,4.4l-0.3,1.3l-2.2-0.7l0.3-1.3c0.3-1.1,0.4-2.4,0.4-3.6
		c0-1.1-0.7-3.1-4.3-6.7l-0.8-0.9L66.6,63.9z M50.3,50.1l3.8,3.1c2.4,1.9,4.6,3.8,6.7,5.5l0.9,0.8l-1.3,2.2l-0.9-0.8
		c-2.1-1.8-4.3-3.6-6.7-5.5L49,52.2L50.3,50.1z M44.6,45.2l0.9,0.8l-1.3,2.1l-0.9-0.8c-3.8-3.3-6.8-6.1-9.2-8.8l-0.8-0.9l1.5-1.9
		l0.8,0.9C37.9,39.2,40.8,42,44.6,45.2z M47,11.7c-4.5,1-8.2,2.1-11.2,3.3l-1.1,0.4L34,13l1.1-0.4c3.1-1.2,6.9-2.4,11.5-3.4l1.1-0.3
		l0.4,2.6L47,11.7z M66.6,8.3c-4.1,0.5-8,1.1-11.6,1.8L54,10.3l-0.3-2.6l1.1-0.2c3.6-0.6,7.5-1.2,11.7-1.8l1.1-0.1l0.2,2.6L66.6,8.3
		z M86.4,6.3c-4,0.3-7.9,0.7-11.7,1.1l-1.1,0.1l-0.2-2.6l1.1-0.1c3.8-0.4,7.7-0.8,11.7-1.1l1.1-0.1l0.2,2.6L86.4,6.3z"/>
</g>
</svg>
