<?xml version="1.0" encoding="utf-8"?>
<!-- Generator: Adobe Illustrator 22.1.0, SVG Export Plug-In . SVG Version: 6.00 Build 0)  -->
<svg version="1.1" id="Calque_1" xmlns="http://www.w3.org/2000/svg" xmlns:xlink="http://www.w3.org/1999/xlink" x="0px" y="0px"
	 viewBox="0 0 24 24" style="enable-background:new 0 0 24 24;" xml:space="preserve">
<g>
	<path d="M3.5,0C1.6,0,0,1.6,0,3.5c0,1.8,2.8,5.8,3.1,6.3C3.2,9.9,3.3,10,3.5,10s0.3-0.1,0.4-0.2C4.2,9.3,7,5.3,7,3.5
		C7,1.6,5.4,0,3.5,0z M3.5,5C2.7,5,2,4.3,2,3.5S2.7,2,3.5,2S5,2.7,5,3.5S4.3,5,3.5,5z"/>
	<g>
		<path d="M17.5,24c-0.8,0-1.5-0.1-2.1-0.2c-0.3-0.1-0.4-0.3-0.4-0.6c0.1-0.3,0.3-0.4,0.6-0.4c0.6,0.1,1.2,0.2,1.9,0.2
			c0.3,0,0.5,0.2,0.5,0.5S17.8,24,17.5,24z M13.7,23.1c-0.1,0-0.2,0-0.3-0.1c-0.6-0.4-1.1-0.9-1.5-1.6c-0.1-0.2-0.1-0.5,0.2-0.7
			s0.5-0.1,0.7,0.2c0.3,0.5,0.7,0.9,1.2,1.3c0.2,0.1,0.3,0.5,0.2,0.7C14,23,13.8,23.1,13.7,23.1z M11.7,19.8c-0.2,0-0.4-0.2-0.5-0.4
			c-0.1-0.7-0.2-1.5-0.3-2c0-0.3,0.2-0.5,0.5-0.5c0.3,0,0.5,0.2,0.5,0.5c0,0.5,0.1,1.3,0.2,1.9c0.1,0.3-0.1,0.5-0.4,0.6
			C11.7,19.8,11.7,19.8,11.7,19.8z M11.3,15.8c-0.3,0-0.5-0.2-0.5-0.5c-0.1-0.8-0.1-1.4-0.3-1.9c-0.1-0.3,0.1-0.5,0.4-0.6
			c0.3-0.1,0.5,0.1,0.6,0.4c0.1,0.6,0.2,1.2,0.3,2.1C11.8,15.6,11.6,15.8,11.3,15.8C11.3,15.8,11.3,15.8,11.3,15.8z M10.3,12
			c-0.2,0-0.3-0.1-0.4-0.2c-0.3-0.5-0.7-0.9-1.3-1.2c-0.2-0.1-0.3-0.4-0.2-0.7c0.1-0.2,0.4-0.3,0.7-0.2c0.7,0.4,1.2,0.9,1.6,1.5
			c0.1,0.2,0.1,0.5-0.1,0.7C10.5,12,10.4,12,10.3,12z M6.9,10.1C6.9,10.1,6.9,10.1,6.9,10.1C6.4,10,6,10,5.5,10l0,0
			C5.2,10,5,9.8,5,9.5C5,9.2,5.2,9,5.5,9C6,9,6.5,9,7,9.1c0.3,0,0.5,0.3,0.4,0.6C7.4,9.9,7.2,10.1,6.9,10.1z"/>
	</g>
	<path d="M19.5,10C17,10,15,12,15,14.5c0,2.3,3.7,8.5,4.1,9.3c0.1,0.2,0.3,0.2,0.4,0.2s0.3-0.1,0.4-0.2c0.4-0.7,4.1-7,4.1-9.3
		C24,12,22,10,19.5,10z M19.5,17c-1.4,0-2.5-1.1-2.5-2.5s1.1-2.5,2.5-2.5s2.5,1.1,2.5,2.5S20.9,17,19.5,17z"/>
</g>
</svg>
