<?xml version="1.0" encoding="utf-8"?>
<!-- Generator: Adobe Illustrator 22.1.0, SVG Export Plug-In . SVG Version: 6.00 Build 0)  -->
<svg version="1.1" id="Calque_1" xmlns="http://www.w3.org/2000/svg" xmlns:xlink="http://www.w3.org/1999/xlink" x="0px" y="0px"
	 viewBox="0 0 100 100" style="enable-background:new 0 0 100 100;" xml:space="preserve">
<style type="text/css">
	.st0{fill:#231F20;}
</style>
<g>
	<path class="st0" d="M95.5,33.9V33c0-0.7-0.8-1.2-1.7-1.2c-0.9,0-1.7,0.6-1.7,1.2v0.9H52.7c0,0,0,0-0.2,0c-4.6,0-8.8,2.1-10.1,5.4
		L41,34.7c2.8-2.4,5.2-5.9,6.8-9.9c4-10.3,2-20.5-4.9-23.7c-2.5-1.2-5.4-1.4-8.1-0.7C29.2,1.9,24.3,7,21.5,14
		c-3.8,9.7-2.1,19.5,4,23.3c-1.2,0.6-2.3,1.8-3.1,3.5c-1.1,2.8-0.6,5.6,1.1,6.5c0.5,0.2,1.1,0.2,1.7,0.1l1.7,7.1
		c-0.9-1.2-2.1-2.2-3.5-2.9c-2.5-1.1-5.4-1.4-8.1-0.7C9.7,52.4,4.8,57.5,2,64.5C-2,74.8,0,84.9,7,88.2c1.5,0.7,3.2,1.1,4.9,1.1
		c1.1,0,2.1-0.1,3.2-0.4c5.5-1.4,10.4-6.5,13.2-13.5c0.9-2.2,1.5-4.5,1.8-6.6l5.1-0.4l-1.8,4.4c-0.3,0.6,0.3,1.2,1.1,1.4
		c0.2,0,0.3,0,0.5,0c0.6,0,1.2-0.3,1.5-0.8l2.5-6.1c0.2-0.3,0-0.8-0.3-1c-0.3-0.3-0.9-0.4-1.4-0.3l-3.4,0.3l2.5-6.1
		c0.9,2.3,3.5,4.3,7.1,5.1c0.3,0,0.5,0.1,0.8,0.1L32,95.2c-0.8,2,0.8,4.1,3.5,4.7c0.5,0.1,0.9,0.1,1.4,0.1l0,0
		c2.3,0,4.3-1.1,4.9-2.7l12.9-31.8h15.2l-5.2,13c-0.8,2,0.8,4,3.4,4.5c0.5,0.1,0.9,0.1,1.4,0.1c2.1,0,4.1-1,4.9-2.7l7.2-17.6
		c0.5-1.1,0.2-2.3-0.8-3.2c-0.9-0.9-2.5-1.4-4-1.4h-19L65,40.5h27.3v47.8c0,0.7,0.8,1.2,1.7,1.2s1.7-0.6,1.7-1.2V40.5
		c2.3,0,4.3-1.4,4.3-3.1C99.8,35.2,97.9,33.9,95.5,33.9z M24,66.7l-8.9,0.9c-0.9,0.1-1.4,0.7-1.4,1.2c0.2,0.7,0.9,1,1.7,1l8.3-0.8
		c-0.3,1.6-0.8,3.2-1.4,4.9c-2.5,6.2-6.4,9.7-9.4,10.5c-0.9,0.2-1.7,0.2-2.5-0.2c-3.8-1.9-5.8-10-2.3-18.7c2.5-6.2,6.4-9.7,9.4-10.5
		c0.5-0.1,0.8-0.1,1.1-0.1c0.5,0,0.9,0.1,1.4,0.3C22.8,56.5,24.5,61,24,66.7z M31.4,38.5c1.1,0,2.1-0.1,3.2-0.4
		c1.4-0.3,2.6-0.9,3.8-1.7l1.2,3.9l-10.3,0.3c0-0.9-0.2-1.8-0.5-2.4C29.7,38.5,30.4,38.5,31.4,38.5z M30.4,34l4-10.2l2.3,7.4
		c-1.5,1.4-3.1,2.4-4.3,2.8C31.7,34.1,31.1,34.1,30.4,34z M27.5,15.1C30,8.9,34,5.3,36.9,4.5c0.5-0.1,0.8-0.1,1.1-0.1
		c0.5,0,0.9,0.1,1.4,0.3c3.8,1.9,5.8,10,2.3,18.7c-0.8,1.9-1.7,3.5-2.6,5l-2.9-9.4c-0.2-0.6-0.8-0.9-1.5-0.9s-1.4,0.3-1.5,0.8
		l-5.2,13.2C25.5,28.8,24.8,22.2,27.5,15.1z M32,61.8L27.8,45c0.3-0.4,0.6-0.9,0.8-1.4c0-0.1,0.2-0.3,0.2-0.4l10.6-0.3L32,61.8z"/>
	<ellipse class="st0" cx="63.1" cy="23.4" rx="11.8" ry="8.5"/>
</g>
</svg>
